<svg width="1879" height="827" xmlns="http://www.w3.org/2000/svg" xmlns:xlink="http://www.w3.org/1999/xlink" overflow="hidden"><defs><clipPath id="clip0"><rect x="856" y="630" width="1879" height="827"/></clipPath></defs><g clip-path="url(#clip0)" transform="translate(-856 -630)"><path d="M874.5 965.501C874.5 943.961 891.961 926.5 913.501 926.5L1184.5 926.5C1206.04 926.5 1223.5 943.961 1223.5 965.501L1223.5 1121.5C1223.5 1143.04 1206.04 1160.5 1184.5 1160.5L913.501 1160.5C891.961 1160.5 874.5 1143.04 874.5 1121.5Z" stroke="#FFFFFF" stroke-width="36.6667" stroke-miterlimit="8" fill="#1EBE9F" fill-rule="evenodd"/><path d="M1395.5 1043.5 1512.5 926.5 1629.5 1043.5 1512.5 1160.5Z" stroke="#FFFFFF" stroke-width="36.6667" stroke-miterlimit="8" fill="#1EBE9F" fill-rule="evenodd"/><path d="M1834.5 687.501C1834.5 665.961 1851.96 648.5 1873.5 648.5L2144.5 648.5C2166.04 648.5 2183.5 665.961 2183.5 687.501L2183.5 843.5C2183.5 865.039 2166.04 882.5 2144.5 882.5L1873.5 882.5C1851.96 882.5 1834.5 865.039 1834.5 843.5Z" stroke="#FFFFFF" stroke-width="36.6667" stroke-miterlimit="8" fill="#1EBE9F" fill-rule="evenodd"/><path d="M1834.5 965.501C1834.5 943.961 1851.96 926.5 1873.5 926.5L2144.5 926.5C2166.04 926.5 2183.5 943.961 2183.5 965.501L2183.5 1121.5C2183.5 1143.04 2166.04 1160.5 2144.5 1160.5L1873.5 1160.5C1851.96 1160.5 1834.5 1143.04 1834.5 1121.5Z" stroke="#FFFFFF" stroke-width="36.6667" stroke-miterlimit="8" fill="#708A8B" fill-rule="evenodd"/><path d="M1834.5 1243.5C1834.5 1221.96 1851.96 1204.5 1873.5 1204.5L2144.5 1204.5C2166.04 1204.5 2183.5 1221.96 2183.5 1243.5L2183.5 1399.5C2183.5 1421.04 2166.04 1438.5 2144.5 1438.5L1873.5 1438.5C1851.96 1438.5 1834.5 1421.04 1834.5 1399.5Z" stroke="#FFFFFF" stroke-width="36.6667" stroke-miterlimit="8" fill="#708A8B" fill-rule="evenodd"/><path d="M2367.5 687.501C2367.5 665.961 2384.96 648.5 2406.5 648.5L2677.5 648.5C2699.04 648.5 2716.5 665.961 2716.5 687.501L2716.5 843.5C2716.5 865.039 2699.04 882.5 2677.5 882.5L2406.5 882.5C2384.96 882.5 2367.5 865.039 2367.5 843.5Z" stroke="#FFFFFF" stroke-width="36.6667" stroke-miterlimit="8" fill="#1EBE9F" fill-rule="evenodd"/><path d="M1223.5 1025.17 1304.02 1025.17 1304.02 1061.83 1223.5 1061.83ZM1285.69 988.5 1395.69 1043.5 1285.69 1098.5Z" fill="#FFFFFF"/><path d="M1629.5 1025.17 1742.85 1025.17 1742.85 1061.83 1629.5 1061.83ZM1724.52 988.5 1834.52 1043.5 1724.52 1098.5Z" fill="#FFFFFF"/><path d="M1494.17 926.191 1494.17 747.166 1742.62 747.166 1742.62 783.833 1512.5 783.833 1530.83 765.5 1530.83 926.191ZM1724.29 710.5 1834.29 765.5 1724.29 820.5Z" fill="#FFFFFF"/><path d="M0-18.3333 179.024-18.3333 179.024 230.124 142.358 230.124 142.358 0 160.691 18.3333 0 18.3333ZM215.691 211.791 160.691 321.791 105.691 211.791Z" fill="#FFFFFF" transform="matrix(1.83697e-16 1 1 -1.83697e-16 1512.5 1160.5)"/><path d="M7.19636e-05-18.3333 92.2142-18.333 92.2141 18.3337-7.19636e-05 18.3333ZM73.881-54.9997 183.881 0.000721785 73.8806 55.0003Z" fill="#FFFFFF" transform="matrix(1 0 0 -1 2183.5 765.501)"/></g></svg>